<svg xmlns="http://www.w3.org/2000/svg" viewBox="0 0 64 64">
  <defs>
    <linearGradient id="bg" x1="0%" y1="0%" x2="100%" y2="100%">
      <stop offset="0%" style="stop-color:#0d1117"/>
      <stop offset="100%" style="stop-color:#161b22"/>
    </linearGradient>
    <linearGradient id="accent" x1="0%" y1="0%" x2="100%" y2="100%">
      <stop offset="0%" style="stop-color:#00d4aa"/>
      <stop offset="100%" style="stop-color:#00a080"/>
    </linearGradient>
  </defs>
  <!-- Background -->
  <rect width="64" height="64" rx="12" fill="url(#bg)"/>
  <!-- Bug icon outline -->
  <g transform="translate(12, 10)">
    <!-- Antenna -->
    <path d="M14 8 L10 2" stroke="url(#accent)" stroke-width="2.5" stroke-linecap="round"/>
    <path d="M26 8 L30 2" stroke="url(#accent)" stroke-width="2.5" stroke-linecap="round"/>
    <!-- Head -->
    <ellipse cx="20" cy="14" rx="8" ry="6" fill="url(#accent)"/>
    <!-- Body -->
    <ellipse cx="20" cy="32" rx="12" ry="14" fill="url(#accent)"/>
    <!-- Body segments -->
    <path d="M8 26 L32 26" stroke="#0d1117" stroke-width="2"/>
    <path d="M8 34 L32 34" stroke="#0d1117" stroke-width="2"/>
    <!-- Legs -->
    <path d="M8 20 L2 16" stroke="url(#accent)" stroke-width="2.5" stroke-linecap="round"/>
    <path d="M32 20 L38 16" stroke="url(#accent)" stroke-width="2.5" stroke-linecap="round"/>
    <path d="M8 30 L2 30" stroke="url(#accent)" stroke-width="2.5" stroke-linecap="round"/>
    <path d="M32 30 L38 30" stroke="url(#accent)" stroke-width="2.5" stroke-linecap="round"/>
    <path d="M8 40 L2 44" stroke="url(#accent)" stroke-width="2.5" stroke-linecap="round"/>
    <path d="M32 40 L38 44" stroke="url(#accent)" stroke-width="2.5" stroke-linecap="round"/>
  </g>
</svg>
