<svg width="64" height="64" viewBox="0 0 64 64" fill="none" xmlns="http://www.w3.org/2000/svg">
  <rect width="64" height="64" rx="16" fill="url(#grad1)" />
  <path fill-rule="evenodd" clip-rule="evenodd"
    d="M32 14C26.4772 14 22 18.4772 22 24V26H18C16.8954 26 16 26.8954 16 28C16 29.1046 16.8954 30 18 30H22V34H16C14.8954 34 14 34.8954 14 36C14 37.1046 14.8954 38 16 38H22V42C22 47.5228 26.4772 52 32 52C37.5228 52 42 47.5228 42 42V38H48C49.1046 38 50 37.1046 50 36C50 34.8954 49.1046 34 48 34H42V30H46C47.1046 30 48 29.1046 48 28C48 26.8954 47.1046 26 46 26H42V24C42 18.4772 37.5228 14 32 14ZM26 24C26 20.6863 28.6863 18 32 18C35.3137 18 38 20.6863 38 24V26H26V24ZM26 30H38V34H26V30ZM26 38H38V42C38 45.3137 35.3137 48 32 48C28.6863 48 26 45.3137 26 42V38Z"
    fill="white" />
  <defs>
    <linearGradient id="grad1" x1="0" y1="0" x2="64" y2="64" gradientUnits="userSpaceOnUse">
      <stop stop-color="#00d4aa" />
      <stop offset="1" stop-color="#00b894" />
    </linearGradient>
  </defs>
</svg>